<?xml version="1.0" encoding="UTF-8"?>
<svg id="Layer_1" data-name="Layer 1" xmlns="http://www.w3.org/2000/svg" viewBox="0 0 1080 1080" fill="#ffffff">
  <g id="_Radial_Repeat_" data-name="&amp;lt;Radial Repeat&amp;gt;">
    <path d="M283.82,560.02l77.55,258.38c2.87,9.57,15.03,12.45,21.89,5.17l198.39-210.57c1.06-1.13,.51-2.99-1-3.35l-281.02-66.4c-9.97-2.36-18.75,6.96-15.8,16.77Z"/>
  </g>
  <g id="_Radial_Repeat_-2" data-name="&amp;lt;Radial Repeat&amp;gt;">
    <path d="M558.62,796.66l258.38-77.55c10.28-3.09,13.37-16.15,5.55-23.51l-208.74-196.67c-1.41-1.33-3.72-.63-4.17,1.25l-66.59,281.81c-2.18,9.25,6.46,17.39,15.56,14.66Z"/>
  </g>
  <g id="_Radial_Repeat_-3" data-name="&amp;lt;Radial Repeat&amp;gt;">
    <path d="M796.48,520.13l-77.55-258.38c-2.92-9.73-15.27-12.65-22.24-5.25l-196.85,208.94c-1.64,1.74-.78,4.6,1.55,5.15l279.54,66.05c9.81,2.32,18.45-6.85,15.56-16.51Z"/>
  </g>
  <g id="_Radial_Repeat_-4" data-name="&amp;lt;Radial Repeat&amp;gt;">
    <path d="M521.23,283.25l-258.38,77.55c-10.13,3.04-13.17,15.9-5.47,23.16l208.48,196.42c1.64,1.55,4.34,.74,4.86-1.46l66.34-280.75c2.22-9.4-6.57-17.69-15.83-14.91Z"/>
  </g>
</svg>
